HIERARCHY
ROOT Hips
{
  OFFSET -32.5998 29.0326 120.673
  CHANNELS 6 Xposition Yposition Zposition Zrotation Xrotation Yrotation
  JOINT LeftUpLeg
  {
    OFFSET 8.64259 1.95398 -2.38835
    CHANNELS 3 Zrotation Xrotation Yrotation
    JOINT LeftLeg
    {
      OFFSET 43.7702 0 0
      CHANNELS 3 Zrotation Xrotation Yrotation
      JOINT LeftFoot
      {
        OFFSET 40.6238 0 0
        CHANNELS 3 Zrotation Xrotation Yrotation
        JOINT LeftToeBase
        {
          OFFSET 12.7242 0 0
          CHANNELS 3 Zrotation Xrotation Yrotation
          End Site
          {
            OFFSET 0 0 0
          }
        }
      }
    }
  }
  JOINT RightUpLeg
  {
    OFFSET -8.2249 1.95398 -2.59336
    CHANNELS 3 Zrotation Xrotation Yrotation
    JOINT RightLeg
    {
      OFFSET 43.5653 0 0
      CHANNELS 3 Zrotation Xrotation Yrotation
      JOINT RightFoot
      {
        OFFSET 40.6238 0 0
        CHANNELS 3 Zrotation Xrotation Yrotation
        JOINT RightToeBase
        {
          OFFSET 12.7242 0 0
          CHANNELS 3 Zrotation Xrotation Yrotation
          End Site
          {
            OFFSET 0 0 0
          }
        }
      }
    }
  }
  JOINT Spine
  {
    OFFSET 0.165834 0.87714 6.61349
    CHANNELS 3 Zrotation Xrotation Yrotation
    JOINT Spine1
    {
      OFFSET 7.38963 1.71661e-005 0
      CHANNELS 3 Zrotation Xrotation Yrotation
      JOINT Spine2
      {
        OFFSET 11.9445 1.14441e-005 0
        CHANNELS 3 Zrotation Xrotation Yrotation
        JOINT Spine3
        {
          OFFSET 14.7254 4.19617e-005 0
          CHANNELS 3 Zrotation Xrotation Yrotation
          JOINT Spine4
          {
            OFFSET 10.9679 0 0
            CHANNELS 3 Zrotation Xrotation Yrotation
            JOINT RightShoulder
            {
              OFFSET 2.46616 -1.6653 3.69651
              CHANNELS 3 Zrotation Xrotation Yrotation
              JOINT RightArm
              {
                OFFSET 13.0012 0 0
                CHANNELS 3 Zrotation Xrotation Yrotation
                JOINT RightForeArm
                {
                  OFFSET 28.7848 1.62311e-005 0
                  CHANNELS 3 Zrotation Xrotation Yrotation
                  JOINT RightHand
                  {
                    OFFSET 26.5688 1.62095e-005 0
                    CHANNELS 3 Zrotation Xrotation Yrotation
                    End Site
                    {
                      OFFSET 0 0 0
                    }
                  }
                }
              }
            }
            JOINT LeftShoulder
            {
              OFFSET 2.38034 -1.29275 -3.7523
              CHANNELS 3 Zrotation Xrotation Yrotation
              JOINT LeftArm
              {
                OFFSET 16.3182 6.07031e-005 0
                CHANNELS 3 Zrotation Xrotation Yrotation
                JOINT LeftForeArm
                {
                  OFFSET 27.0901 0 0
                  CHANNELS 3 Zrotation Xrotation Yrotation
                  JOINT LeftHand
                  {
                    OFFSET 24.5451 1.51738e-005 0
                    CHANNELS 3 Zrotation Xrotation Yrotation
                    End Site
                    {
                      OFFSET 0 0 0
                    }
                  }
                }
              }
            }
            JOINT Neck
            {
              OFFSET 5.0226 -0.0266342 0
              CHANNELS 3 Zrotation Xrotation Yrotation
              JOINT Head
              {
                OFFSET 6.69364 2.86102e-005 0
                CHANNELS 3 Zrotation Xrotation Yrotation
                End Site
                {
                  OFFSET 0 0 0
                }
              }
            }
          }
        }
      }
    }
  }
}
MOTION
Frames:	6
Frame Time:	0.0416667
33.1258 70.0666 10.6543 -5.96416 -69.5255 -6.48826 -87.1426 67.086 45.2443 -94.0919 30.7239 -9.44724 92.9513 21.9645 -0.579829 4.50538 -12.7933 2.56888 91.8916 60.7067 139.402 -98.4538 -20.752 6.99411 89.2141 -21.746 -5.39739 25.3051 -1.5896 11.5881 0.654058 10.3309 -90.7392 6.2162 0.994482 -1.48703 -5.45525 0.928074 -1.52937 -27.9892 1.39539 -1.11945 -7.97651 1.39539 -1.11945 89.1192 -18.8672 -113.95 -1.03881 -15.0831 -61.2612 -7.40384 -39.3383 -12.394 -14.7612 -1.86982 9.72243 -90.9103 -30.1317 71.6318 16.4025 12.8928 -87.6316 -0.00503218 28.4407 -0.13643 -0.338996 0.129366 7.8348 8.69675 0.284946 -2.35051 -11.6784 0.395829 5.36353 
33.5863 65.0006 9.80657 -7.53692 -70.744 -7.90439 -70.8377 67.084 29.3116 -105.459 28.404 -3.80852 95.6148 23.2529 -1.47103 4.42391 -12.8848 2.62649 79.3295 59.6636 151.127 -108.227 -19.3315 2.57865 90.7509 -23.39 -6.29549 25.7985 -1.71137 11.4218 0.655565 10.6836 -90.7311 5.5107 1.00556 -1.46009 -6.16073 0.94034 -1.50293 -28.6949 1.39787 -1.09041 -8.68227 1.39787 -1.09041 89.3516 -18.1702 -113.817 -1.46332 -13.91 -61.6603 -7.98455 -39.5395 -12.6409 -15.235 -2.01561 10.3224 -91.3727 -30.7844 71.0033 16.7595 11.6201 -86.9611 0.0801237 29.7396 0.00626595 1.75924 0.395245 9.06386 8.40628 0.302187 -1.63617 -10.9288 0.360253 4.30741 
34.1689 59.9613 9.17452 -9.95233 -72.7881 -10.629 -59.8037 65.289 18.5502 -115.31 25.3653 0.655374 98.6587 25.0371 -1.87582 4.96986 -12.9409 3.11409 69.8864 58.0841 159.864 -117.088 -16.197 -1.34607 93.5437 -25.4763 -6.38183 25.9476 -1.811 11.6151 0.652826 10.9889 -90.6159 4.89988 1.05132 -1.22454 -6.77127 0.996411 -1.26962 -29.3073 1.37072 -0.851977 -9.29461 1.37072 -0.851962 88.8906 -18.1769 -114.901 -1.04706 -13.0748 -60.7561 -8.095 -38.9616 -12.485 -16.4293 -1.89312 8.2865 -91.3449 -30.541 70.9644 16.967 11.6122 -86.1948 0.168834 29.5965 0.000372326 0.0952414 0.183197 7.79117 7.529 0.386973 -1.82803 -10.7963 0.4799 4.2452 
34.7963 54.8608 8.73814 -13.4995 -75.176 -14.1952 -51.8863 63.1528 11.1979 -124.03 21.3032 3.96089 102.971 26.6494 -3.88522 6.45465 -12.3163 3.37916 65.3949 55.9124 164.24 -124.152 -11.3463 -4.09912 100.163 -29.4445 -4.60575 25.9364 -1.71223 11.2441 0.70571 11.2725 -90.5934 4.33318 1.16909 -1.17199 -7.33782 1.11637 -1.22232 -29.8751 1.46725 -0.766446 -9.86243 1.46725 -0.766437 88.9482 -18.1313 -114.793 -1.90065 -13.5867 -60.6549 -8.27733 -37.7091 -13.0651 -15.4376 -1.65153 7.35056 -91.6034 -32.1315 71.0717 16.8941 11.5149 -85.8867 -0.0866162 29.6353 -0.00892695 1.54694 0.349994 8.25456 7.27684 0.253803 -1.06174 -10.79 0.254514 3.24615 
35.2388 49.8556 8.346 -18.907 -77.9129 -19.6585 -43.8933 60.5341 3.83944 -131.912 17.261 6.3418 104.449 27.4263 -3.69051 3.81205 -12.4958 1.63802 61.3878 53.5774 168.57 -130.176 -5.26397 -6.13471 106.022 -32.2948 -2.40362 25.8394 -1.317 9.8494 0.76832 11.5304 -90.5286 3.81753 1.32276 -1.03641 -7.85321 1.27587 -1.09363 -30.3924 1.57309 -0.590899 -10.3798 1.57308 -0.590907 88.8012 -18.8241 -114.717 -2.92195 -14.4147 -61.1365 -8.0888 -38.8563 -13.1117 -15.8937 -1.9348 9.08434 -91.5487 -32.0614 71.1454 16.9275 12.413 -85.8255 -0.184082 30.2281 -0.0221881 2.12741 0.427241 8.68291 7.2604 0.0989027 -1.79719 -10.8224 0.224417 3.63857 
35.4328 45.275 7.81425 -25.8743 -80.8593 -26.5972 -39.1707 58.2714 -1.74692 -137.857 11.5986 7.63509 108.058 28.6846 -4.76566 5.00808 -13.1772 3.47548 57.9139 50.5684 173.785 -135.275 3.16274 -7.60197 108.805 -33.0173 -1.82527 25.8701 -1.12661 9.07854 0.801232 11.7632 -90.5062 3.35193 1.39939 -0.983172 -8.31868 1.35476 -1.04383 -30.8588 1.63015 -0.51709 -10.8462 1.63015 -0.51709 88.7253 -18.6219 -115.016 -1.83184 -14.3793 -60.713 -9.13175 -40.0991 -14.105 -18.8389 -2.53582 10.4457 -91.4739 -31.9622 71.247 15.3805 13.6328 -86.049 0.395302 31.8484 0.00163739 5.34116 0.854156 9.36917 6.91441 -0.0394906 -1.97567 -10.6327 0.151684 3.21993 
